<?xml version="1.0" encoding="utf-8"?>
<!-- Generator: Adobe Illustrator 27.5.0, SVG Export Plug-In . SVG Version: 6.00 Build 0)  -->
<svg version="1.1" id="Layer_1" xmlns="http://www.w3.org/2000/svg" xmlns:xlink="http://www.w3.org/1999/xlink" x="0px" y="0px"
	 viewBox="0 0 168.1 57" style="enable-background:new 0 0 168.1 57;" xml:space="preserve">
<style type="text/css">
	.st0{fill:#231F20;}
	.st1{fill:#00B5E2;}
	.st2{fill:#E4002B;}
</style>
<g>
	<g>
		<path class="st0" d="M100.6,22.1l0.7-1.5c0.7,0.5,1.9,0.9,2.9,0.9c1.2,0,1.7-0.4,1.7-1c0-1.7-5.2-0.5-5.2-3.8
			c0-1.5,1.2-2.8,3.7-2.8c1.1,0,2.3,0.3,3.1,0.8l-0.6,1.6c-0.8-0.5-1.7-0.7-2.5-0.7c-1.2,0-1.7,0.5-1.7,1c0,1.6,5.2,0.5,5.2,3.8
			c0,1.5-1.2,2.8-3.8,2.8C102.8,23.2,101.4,22.7,100.6,22.1"/>
		<rect x="109.5" y="14.1" class="st0" width="2.1" height="8.9"/>
		<polygon class="st0" points="121.8,23 121.8,17.7 119.1,22.1 118.2,22.1 115.6,17.8 115.6,23 113.7,23 113.7,14.1 115.4,14.1 
			118.7,19.6 122,14.1 123.7,14.1 123.7,23 		"/>
		<path class="st0" d="M107.2,34.2h1.9v3.6c-1,0.7-2.3,1.1-3.6,1.1c-2.8,0-4.9-1.9-4.9-4.6c0-2.7,2.1-4.6,4.9-4.6
			c1.6,0,2.9,0.5,3.7,1.5l-1.3,1.2c-0.6-0.7-1.4-1-2.3-1c-1.7,0-2.9,1.2-2.9,2.8c0,1.7,1.2,2.8,2.9,2.8c0.6,0,1.1-0.1,1.6-0.4V34.2z
			"/>
		<rect x="110.9" y="29.3" class="st0" width="2" height="9.4"/>
		<path class="st0" d="M114.4,35.3c0-2.1,1.6-3.5,3.8-3.5c2.2,0,3.7,1.5,3.7,3.5c0,2.1-1.6,3.5-3.7,3.5
			C116,38.9,114.4,37.4,114.4,35.3 M119.9,35.3c0-1.2-0.7-1.9-1.7-1.9c-1,0-1.8,0.7-1.8,1.9c0,1.2,0.8,1.9,1.8,1.9
			C119.1,37.2,119.9,36.5,119.9,35.3"/>
		<path class="st0" d="M130.8,35.3c0,2.1-1.5,3.5-3.4,3.5c-0.9,0-1.7-0.3-2.1-0.9v0.8h-1.9v-9.4h2v3.3c0.5-0.6,1.2-0.8,2.1-0.8
			C129.3,31.8,130.8,33.2,130.8,35.3 M128.8,35.3c0-1.2-0.7-1.9-1.7-1.9c-1,0-1.7,0.7-1.7,1.9c0,1.2,0.7,1.9,1.7,1.9
			C128,37.2,128.8,36.5,128.8,35.3"/>
		<path class="st0" d="M138.3,34.9v3.9h-1.9v-0.9c-0.4,0.6-1.1,1-2.1,1c-1.6,0-2.6-0.9-2.6-2.1c0-1.2,0.9-2,2.9-2h1.6
			c0-0.9-0.5-1.3-1.6-1.3c-0.7,0-1.5,0.2-2,0.6l-0.7-1.4c0.7-0.5,1.9-0.8,2.9-0.8C137.1,31.8,138.3,32.8,138.3,34.9 M136.3,36.6
			v-0.7h-1.4c-0.9,0-1.2,0.3-1.2,0.8c0,0.5,0.4,0.8,1.1,0.8C135.5,37.5,136.1,37.2,136.3,36.6"/>
		<rect x="140.2" y="29.3" class="st0" width="2" height="9.4"/>
		<polygon class="st0" points="108,52.9 108,54.5 101.2,54.5 101.2,45.6 107.9,45.6 107.9,47.3 103.2,47.3 103.2,49.2 107.3,49.2 
			107.3,50.8 103.2,50.8 103.2,52.9 		"/>
		<path class="st0" d="M116.5,45.1v9.4h-1.9v-0.8c-0.5,0.6-1.2,0.9-2.1,0.9c-1.9,0-3.4-1.4-3.4-3.5c0-2.1,1.5-3.5,3.4-3.5
			c0.8,0,1.5,0.3,2,0.8v-3.3H116.5z M114.6,51.1c0-1.2-0.8-1.9-1.7-1.9c-1,0-1.8,0.7-1.8,1.9c0,1.2,0.8,1.9,1.8,1.9
			C113.8,53,114.6,52.3,114.6,51.1"/>
		<path class="st0" d="M125.4,47.7v6.8h-1.9v-0.8c-0.5,0.6-1.3,0.9-2.1,0.9c-1.7,0-2.9-1-2.9-3.1v-3.9h2v3.6c0,1.1,0.5,1.6,1.4,1.6
			c0.9,0,1.6-0.6,1.6-1.8v-3.4H125.4z"/>
		<path class="st0" d="M126.8,51.1c0-2.1,1.6-3.5,3.8-3.5c1.4,0,2.6,0.6,3.1,1.7l-1.5,0.8c-0.4-0.6-0.9-0.9-1.5-0.9
			c-1,0-1.8,0.7-1.8,1.9c0,1.2,0.8,1.9,1.8,1.9c0.6,0,1.2-0.3,1.5-0.9l1.5,0.8c-0.5,1.1-1.6,1.7-3.1,1.7
			C128.4,54.6,126.8,53.1,126.8,51.1"/>
		<path class="st0" d="M141,50.6v3.9h-1.9v-0.9c-0.4,0.6-1.1,1-2.1,1c-1.6,0-2.6-0.9-2.6-2.1c0-1.2,0.9-2,2.9-2h1.6
			c0-0.9-0.5-1.3-1.6-1.3c-0.7,0-1.5,0.2-2,0.6l-0.7-1.4c0.7-0.5,1.9-0.8,2.9-0.8C139.8,47.6,141,48.5,141,50.6 M139,52.3v-0.7h-1.4
			c-0.9,0-1.2,0.3-1.2,0.8c0,0.5,0.4,0.8,1.1,0.8C138.2,53.3,138.8,53,139,52.3"/>
		<path class="st0" d="M147.3,54.2c-0.4,0.3-1,0.4-1.6,0.4c-1.6,0-2.6-0.8-2.6-2.5v-2.8h-1.1v-1.5h1.1v-1.7h2v1.7h1.7v1.5h-1.7v2.8
			c0,0.6,0.3,0.9,0.9,0.9c0.3,0,0.6-0.1,0.8-0.3L147.3,54.2z"/>
		<path class="st0" d="M148.4,45.6c0-0.6,0.5-1.1,1.2-1.1s1.2,0.5,1.2,1.1c0,0.7-0.5,1.1-1.2,1.1S148.4,46.2,148.4,45.6 M148.7,47.7
			h2v6.8h-2V47.7z"/>
		<path class="st0" d="M152.2,51.1c0-2.1,1.6-3.5,3.8-3.5c2.2,0,3.7,1.5,3.7,3.5c0,2.1-1.6,3.5-3.7,3.5
			C153.8,54.6,152.2,53.1,152.2,51.1 M157.7,51.1c0-1.2-0.7-1.9-1.7-1.9c-1,0-1.8,0.7-1.8,1.9c0,1.2,0.8,1.9,1.8,1.9
			C157,53,157.7,52.3,157.7,51.1"/>
		<path class="st0" d="M168.1,50.6v3.9h-2v-3.6c0-1.1-0.5-1.6-1.4-1.6c-1,0-1.6,0.6-1.6,1.8v3.4h-2v-6.8h1.9v0.8
			c0.5-0.6,1.3-0.9,2.3-0.9C166.9,47.6,168.1,48.5,168.1,50.6"/>
	</g>
	<g>
		<polygon class="st1" points="19.6,57.1 35.8,57.1 27.7,40.9 		"/>
		<polygon class="st2" points="41.2,13.9 34.5,27.4 49.3,57.1 62.8,57.1 		"/>
		<polygon class="st1" points="70.9,13.9 49.3,57.1 62.8,57.1 77.6,27.3 		"/>
		<polygon class="st2" points="77.6,27.3 70.9,40.9 79,57.1 92.5,57.1 		"/>
		<path class="st2" d="M42.4,5.4c0,3-2.4,5.4-5.4,5.4c-3,0-5.4-2.4-5.4-5.4c0-3,2.4-5.4,5.4-5.4C40,0.1,42.4,2.5,42.4,5.4"/>
		<path class="st2" d="M2.1,21.3c-3.3,6.7-0.6,14.8,6,18.1l12.1-24.1C13.5,11.9,5.4,14.6,2.1,21.3"/>
		<path class="st1" d="M18.1,49.6c3.3-6.7,0.6-14.8-6-18.1L0,55.6C6.7,59,14.8,56.3,18.1,49.6"/>
	</g>
</g>
</svg>
